<svg width="206" height="160" fill="none" xmlns="http://www.w3.org/2000/svg"><path d="m191.5 1-93 158h-84l93-158h84Z" fill="#EDF5F9"/><rect x="1" y="8" width="204" height="144" rx="5" fill="#EDF5F9"/><path fill-rule="evenodd" clip-rule="evenodd" d="M107.93 1.25a.5.5 0 1 0-.86-.5l-3.98 6.75H6A5.5 5.5 0 0 0 .5 13v134a5.5 5.5 0 0 0 5.5 5.5h11.75l-3.68 6.25a.5.5 0 0 0 .86.5L52.2 95.94l.91 1.57-36.04 61.24a.5.5 0 0 0 .86.5L53.7 98.51l.9 1.58-34.52 58.66a.5.5 0 0 0 .86.5l34.24-58.17.91 1.58-33.01 56.09a.5.5 0 0 0 .86.5l32.73-55.6.9 1.58-31.5 53.52a.5.5 0 0 0 .87.5l31.21-53.02.91 1.58-29.98 50.94a.5.5 0 0 0 .86.5l29.7-50.45.9 1.58-28.46 48.37a.5.5 0 0 0 .86.5l28.18-47.88.91 1.58-26.95 45.8a.5.5 0 0 0 .86.5l26.67-45.3.91 1.57-25.44 43.23a.5.5 0 0 0 .86.5l25.15-42.73.92 1.58-23.93 40.65a.5.5 0 0 0 .86.5l23.64-40.16.91 1.58-22.41 38.08a.5.5 0 0 0 .86.5l22.13-37.58.9 1.57-20.9 35.5a.5.5 0 0 0 .87.51l20.61-35.01.91 1.58-19.38 32.93a.5.5 0 0 0 .86.5l19.1-32.44.08.15c.27.46.57.9.9 1.3l-17.94 30.49a.5.5 0 0 0 .86.5l17.78-30.2c.38.37.8.72 1.23 1.03l-16.87 28.67a.5.5 0 0 0 .86.5l16.85-28.62c.46.26.94.49 1.44.68l-16.15 27.44a.5.5 0 0 0 .86.5l16.26-27.63c.55.15 1.1.25 1.67.3l-15.8 26.83a.5.5 0 0 0 .87.5L79 131.96h1.83l-15.76 26.79a.5.5 0 0 0 .86.5L82 131.96h1.83l-15.76 26.79a.5.5 0 0 0 .86.5L85 131.96h1.83l-15.76 26.79a.5.5 0 0 0 .86.5L88 131.96h1.83l-15.76 26.79a.5.5 0 0 0 .86.5L91 131.96h1.83l-15.76 26.79a.5.5 0 0 0 .86.5L94 131.96h1.83l-15.76 26.79a.5.5 0 0 0 .86.5L97 131.96h1.83l-15.76 26.79a.5.5 0 0 0 .86.5L100 131.96h1.83l-15.76 26.79a.5.5 0 0 0 .86.5L103 131.96h1.84l-15.76 26.79a.5.5 0 0 0 .86.5L106 131.96h1.84l-15.76 26.79a.5.5 0 0 0 .86.5L109 131.96h1.84l-15.76 26.79a.5.5 0 0 0 .86.5L112 131.96h1.84l-15.76 26.79a.5.5 0 0 0 .86.5l3.98-6.75H200a5.5 5.5 0 0 0 5.5-5.5V13a5.5 5.5 0 0 0-5.5-5.5h-11.75l3.68-6.25a.5.5 0 1 0-.86-.5L153.8 64.06l-.91-1.57 36.04-61.24a.5.5 0 1 0-.86-.5L152.3 61.49l-.9-1.58 34.52-58.66a.5.5 0 1 0-.86-.5l-34.24 58.17-.91-1.58 33.01-56.09a.5.5 0 1 0-.86-.5l-32.73 55.6-.9-1.58 31.5-53.52a.5.5 0 1 0-.87-.5l-31.21 53.02-.91-1.58 29.98-50.94a.5.5 0 1 0-.86-.5l-29.7 50.45-.9-1.58 28.46-48.37a.5.5 0 1 0-.86-.5l-28.18 47.88-.91-1.58 26.95-45.8a.5.5 0 1 0-.86-.5l-26.67 45.3-.91-1.57 25.44-43.23a.5.5 0 1 0-.86-.5l-25.15 42.73-.91-1.58 23.92-40.65a.5.5 0 1 0-.86-.5L140.43 40.9l-.91-1.58 22.41-38.08a.5.5 0 1 0-.86-.5l-22.13 37.58-.9-1.57 20.9-35.5a.5.5 0 1 0-.87-.51l-20.61 35.01-.91-1.58 19.38-32.93a.5.5 0 1 0-.86-.5l-19.1 32.44-.08-.15c-.27-.46-.57-.9-.9-1.3l17.94-30.49a.5.5 0 1 0-.86-.5l-17.78 30.2c-.38-.37-.8-.72-1.23-1.03l16.87-28.67a.5.5 0 1 0-.86-.5l-16.85 28.62c-.46-.26-.94-.49-1.44-.68l16.15-27.44a.5.5 0 1 0-.86-.5L129.8 28.38a10 10 0 0 0-1.67-.3l15.8-26.83a.5.5 0 1 0-.87-.5L127 28.04h-1.84l15.76-26.79a.5.5 0 1 0-.86-.5L124 28.04h-1.84l15.76-26.79a.5.5 0 1 0-.86-.5L121 28.04h-1.84l15.76-26.79a.5.5 0 1 0-.86-.5L118 28.04h-1.84l15.76-26.79a.5.5 0 1 0-.86-.5L115 28.04h-1.84l15.76-26.79a.5.5 0 1 0-.86-.5L112 28.04h-1.84l15.76-26.79a.5.5 0 1 0-.86-.5L109 28.04h-1.84l15.76-26.79a.5.5 0 1 0-.86-.5L106 28.04h-1.84l15.76-26.79a.5.5 0 1 0-.86-.5L103 28.04h-1.84l15.76-26.79a.5.5 0 1 0-.86-.5L100 28.04h-1.84l15.76-26.79a.5.5 0 1 0-.86-.5L97 28.04h-1.83l15.76-26.79a.5.5 0 1 0-.86-.5L94 28.04h-1.83l15.76-26.79Zm79.74 7.25-33.3 56.56 2.34 4.04 3.84-2.4c.43-.26.69-.72.7-1.22l.22-6.37a2.5 2.5 0 0 1 1.18-2.03l5.4-3.37c.43-.27.69-.72.7-1.22l.22-6.37a2.5 2.5 0 0 1 1.18-2.03l5.4-3.37c.43-.27.69-.72.7-1.22l.22-6.37a2.5 2.5 0 0 1 1.18-2.03l5.4-3.37c.43-.27.69-.72.7-1.22l.22-6.37a2.5 2.5 0 0 1 1.18-2.03l5.4-3.37c.43-.27.69-.72.7-1.22l.18-5.02H187.67Zm4.76 0-.17 5.05a2.5 2.5 0 0 1-1.18 2.04l-5.4 3.36a1.5 1.5 0 0 0-.7 1.23l-.22 6.36a2.5 2.5 0 0 1-1.18 2.04l-5.4 3.36a1.5 1.5 0 0 0-.7 1.23l-.22 6.36a2.5 2.5 0 0 1-1.18 2.04l-5.4 3.36a1.5 1.5 0 0 0-.7 1.23l-.22 6.36a2.5 2.5 0 0 1-1.18 2.04l-5.4 3.37a1.5 1.5 0 0 0-.7 1.22l-.22 6.36a2.5 2.5 0 0 1-1.18 2.04l-3.88 2.41 2.3 3.98c.2-.35.49-.65.84-.87l5.4-3.37c.43-.26.7-.72.71-1.22l.22-6.37a2.5 2.5 0 0 1 1.17-2.03l5.4-3.37c.43-.27.7-.72.71-1.22l.22-6.37a2.5 2.5 0 0 1 1.17-2.03l5.4-3.37c.43-.27.7-.72.71-1.22l.22-6.37a2.5 2.5 0 0 1 1.17-2.03l5.4-3.37c.43-.27.7-.72.71-1.22l.22-6.37a2.5 2.5 0 0 1 1.17-2.03l5.4-3.37c.43-.27.7-.72.71-1.22l.22-6.37a2.5 2.5 0 0 1 .7-1.65h-4.94Zm6.69 0-.75.46a1.5 1.5 0 0 0-.7 1.23l-.22 6.36a2.5 2.5 0 0 1-1.17 2.04l-5.4 3.36a1.5 1.5 0 0 0-.71 1.23l-.22 6.36a2.5 2.5 0 0 1-1.17 2.04l-5.4 3.36a1.5 1.5 0 0 0-.71 1.23l-.22 6.36a2.5 2.5 0 0 1-1.17 2.04l-5.4 3.36a1.5 1.5 0 0 0-.71 1.23l-.22 6.36a2.5 2.5 0 0 1-1.17 2.04l-5.4 3.37a1.5 1.5 0 0 0-.71 1.22l-.22 6.36a2.5 2.5 0 0 1-1.17 2.04l-5.4 3.37c-.42.25-.68.7-.71 1.18a10 10 0 0 1-.06 9.9l-2.59 4.48c.16-.16.33-.3.52-.42l5.4-3.37c.43-.26.7-.72.71-1.22l.21-6.37a2.5 2.5 0 0 1 1.18-2.03l5.4-3.37c.43-.26.7-.72.71-1.22l.21-6.37a2.5 2.5 0 0 1 1.18-2.03l5.4-3.37c.43-.27.7-.72.71-1.22l.21-6.37a2.5 2.5 0 0 1 1.18-2.03l5.4-3.37c.43-.27.7-.72.71-1.22l.21-6.37a2.5 2.5 0 0 1 1.18-2.03l5.4-3.37c.43-.27.7-.72.71-1.22l.21-6.37a2.5 2.5 0 0 1 1.18-2.03l5.4-3.37c.43-.27.7-.72.71-1.22l.21-6.37a2.5 2.5 0 0 1 1.18-2.04l.78-.48A4.5 4.5 0 0 0 200 8.5h-.88Zm5.14 3.04-.7.42a1.5 1.5 0 0 0-.7 1.23l-.21 6.36a2.5 2.5 0 0 1-1.18 2.04l-5.4 3.36a1.5 1.5 0 0 0-.7 1.23l-.22 6.36a2.5 2.5 0 0 1-1.18 2.04l-5.4 3.36a1.5 1.5 0 0 0-.7 1.23l-.22 6.36a2.5 2.5 0 0 1-1.18 2.04l-5.4 3.36a1.5 1.5 0 0 0-.7 1.23l-.22 6.36a2.5 2.5 0 0 1-1.18 2.04l-5.4 3.37a1.5 1.5 0 0 0-.7 1.22l-.22 6.36a2.5 2.5 0 0 1-1.18 2.04l-5.4 3.37a1.5 1.5 0 0 0-.7 1.22l-.22 6.36a2.5 2.5 0 0 1-1.18 2.04l-5.4 3.37a1.5 1.5 0 0 0-.7 1.22l-.22 6.36a2.5 2.5 0 0 1-1.18 2.04l-5.4 3.37a1.5 1.5 0 0 0-.7 1.22l-.22 6.36a2.5 2.5 0 0 1-1.18 2.04l-5.4 3.37a1.5 1.5 0 0 0-.7 1.22l-.22 6.36a2.5 2.5 0 0 1-1.18 2.04l-5.4 3.37a1.5 1.5 0 0 0-.7 1.22l-.22 6.36a2.5 2.5 0 0 1-1.18 2.04l-5.4 3.37a1.5 1.5 0 0 0-.7 1.22l-.22 6.36a2.5 2.5 0 0 1-1.18 2.04l-.01.01h5.42l.18-5.44a2.5 2.5 0 0 1 1.18-2.04l5.4-3.37c.42-.26.69-.72.7-1.22l.22-6.36a2.5 2.5 0 0 1 1.18-2.04l5.4-3.37c.42-.26.69-.72.7-1.22l.22-6.36a2.5 2.5 0 0 1 1.18-2.04l5.4-3.37c.42-.26.69-.72.7-1.22l.22-6.37a2.5 2.5 0 0 1 1.18-2.03l5.4-3.37c.42-.26.69-.72.7-1.22l.22-6.37a2.5 2.5 0 0 1 1.18-2.03l5.4-3.37c.42-.26.69-.72.7-1.22l.22-6.37a2.5 2.5 0 0 1 1.18-2.03l5.4-3.37c.42-.26.69-.72.7-1.22l.22-6.37a2.5 2.5 0 0 1 1.18-2.03l5.4-3.37c.42-.27.69-.72.7-1.22l.22-6.37a2.5 2.5 0 0 1 1.18-2.03l5.4-3.37c.42-.27.69-.72.7-1.22l.22-6.37a2.5 2.5 0 0 1 1.18-2.03l5.4-3.37c.42-.27.69-.72.7-1.22l.22-6.37a2.5 2.5 0 0 1 1.18-2.03l3.76-2.35V13c0-.51-.09-1-.24-1.46Zm.24 14.4-3.24 2.01a1.5 1.5 0 0 0-.7 1.23l-.22 6.36a2.5 2.5 0 0 1-1.17 2.04l-5.4 3.36a1.5 1.5 0 0 0-.71 1.23l-.22 6.36a2.5 2.5 0 0 1-1.17 2.04l-5.4 3.36a1.5 1.5 0 0 0-.71 1.23l-.22 6.36a2.5 2.5 0 0 1-1.17 2.04l-5.4 3.37a1.5 1.5 0 0 0-.71 1.22l-.22 6.36a2.5 2.5 0 0 1-1.17 2.04l-5.4 3.37a1.5 1.5 0 0 0-.71 1.22l-.22 6.36a2.5 2.5 0 0 1-1.17 2.04l-5.4 3.37a1.5 1.5 0 0 0-.71 1.22l-.22 6.36a2.5 2.5 0 0 1-1.17 2.04l-5.4 3.37a1.5 1.5 0 0 0-.71 1.22l-.22 6.36a2.5 2.5 0 0 1-1.17 2.04l-5.4 3.37a1.5 1.5 0 0 0-.71 1.22l-.22 6.36a2.5 2.5 0 0 1-1.17 2.04l-5.4 3.37a1.5 1.5 0 0 0-.71 1.22l-.22 6.36a2.5 2.5 0 0 1-1.17 2.04l-5.4 3.37a1.5 1.5 0 0 0-.71 1.22l-.18 5.41h4.3l.08-2.44a2.5 2.5 0 0 1 1.17-2.04l5.4-3.37c.43-.26.7-.72.71-1.22l.22-6.36a2.5 2.5 0 0 1 1.17-2.04l5.4-3.37c.43-.26.7-.72.71-1.22l.22-6.36a2.5 2.5 0 0 1 1.17-2.04l5.4-3.37c.43-.26.7-.72.71-1.22l.22-6.37a2.5 2.5 0 0 1 1.17-2.03l5.4-3.37c.43-.26.7-.72.71-1.22l.22-6.37a2.5 2.5 0 0 1 1.17-2.03l5.4-3.37c.43-.26.7-.72.71-1.22l.22-6.37a2.5 2.5 0 0 1 1.17-2.03l5.4-3.37c.43-.26.7-.72.71-1.22l.22-6.37a2.5 2.5 0 0 1 1.17-2.03l5.4-3.37c.43-.27.7-.72.71-1.22l.22-6.37a2.5 2.5 0 0 1 1.17-2.03l5.4-3.37c.43-.27.7-.72.71-1.22l.22-6.37a2.5 2.5 0 0 1 1.17-2.03l5.4-3.37c.34-.21.58-.54.67-.92V25.94Zm0 14.55-.13.09-5.4 3.36a1.5 1.5 0 0 0-.72 1.23l-.2 6.36a2.5 2.5 0 0 1-1.19 2.04l-5.4 3.36a1.5 1.5 0 0 0-.7 1.23l-.22 6.36a2.5 2.5 0 0 1-1.17 2.04l-5.4 3.37a1.5 1.5 0 0 0-.72 1.22l-.2 6.36a2.5 2.5 0 0 1-1.19 2.04l-5.4 3.37a1.5 1.5 0 0 0-.7 1.22l-.22 6.36a2.5 2.5 0 0 1-1.17 2.04l-5.4 3.37a1.5 1.5 0 0 0-.72 1.22l-.2 6.36a2.5 2.5 0 0 1-1.19 2.04l-5.4 3.37a1.5 1.5 0 0 0-.7 1.22l-.22 6.36a2.5 2.5 0 0 1-1.17 2.04l-5.4 3.37a1.5 1.5 0 0 0-.72 1.22l-.2 6.36a2.5 2.5 0 0 1-1.19 2.04l-5.4 3.37a1.5 1.5 0 0 0-.7 1.22l-.22 6.36a2.5 2.5 0 0 1-1.17 2.04l-5.4 3.37a1.5 1.5 0 0 0-.72 1.22l-.08 2.41h4.36a2.5 2.5 0 0 1 1.1-1.48l5.4-3.37c.43-.26.7-.72.7-1.22l.22-6.36a2.5 2.5 0 0 1 1.18-2.04l5.4-3.37c.43-.26.7-.72.7-1.22l.22-6.36a2.5 2.5 0 0 1 1.18-2.04l5.4-3.37c.43-.26.7-.72.7-1.22l.22-6.37a2.5 2.5 0 0 1 1.18-2.03l5.4-3.37c.43-.26.7-.72.7-1.22l.22-6.36a2.5 2.5 0 0 1 1.18-2.04l5.4-3.37c.43-.26.7-.72.7-1.22l.22-6.37a2.5 2.5 0 0 1 1.18-2.03l5.4-3.37c.43-.26.7-.72.7-1.22l.22-6.37a2.5 2.5 0 0 1 1.18-2.03l5.4-3.37c.43-.27.7-.72.7-1.22l.22-6.37a2.5 2.5 0 0 1 1.18-2.03l5.4-3.37c.43-.27.7-.72.7-1.22l.22-6.37a2.5 2.5 0 0 1 1.18-2.03l.87-.55V40.5Zm0 6.24-.34.21a1.5 1.5 0 0 0-.7 1.23l-.22 6.36a2.5 2.5 0 0 1-1.18 2.04l-5.4 3.36a1.5 1.5 0 0 0-.7 1.23l-.22 6.36a2.5 2.5 0 0 1-1.18 2.04l-5.4 3.37a1.5 1.5 0 0 0-.7 1.22l-.22 6.36a2.5 2.5 0 0 1-1.18 2.04l-5.4 3.37a1.5 1.5 0 0 0-.7 1.22l-.22 6.36a2.5 2.5 0 0 1-1.18 2.04l-5.4 3.37a1.5 1.5 0 0 0-.7 1.22l-.22 6.36a2.5 2.5 0 0 1-1.18 2.04l-5.4 3.37a1.5 1.5 0 0 0-.7 1.22l-.22 6.36a2.5 2.5 0 0 1-1.18 2.04l-5.4 3.37a1.5 1.5 0 0 0-.7 1.22l-.22 6.36a2.5 2.5 0 0 1-1.18 2.04l-5.4 3.37a1.5 1.5 0 0 0-.7 1.22l-.22 6.36a2.5 2.5 0 0 1-1.18 2.04l-5.4 3.37a1.5 1.5 0 0 0-.57.63h7.67l2.97-1.85c.42-.26.69-.72.7-1.22l.22-6.36a2.5 2.5 0 0 1 1.17-2.04l5.4-3.37c.43-.26.7-.72.71-1.22l.22-6.36a2.5 2.5 0 0 1 1.17-2.04l5.4-3.37c.43-.26.7-.72.71-1.22l.22-6.37a2.5 2.5 0 0 1 1.17-2.03l5.4-3.37c.43-.26.7-.72.71-1.22l.22-6.36a2.5 2.5 0 0 1 1.17-2.04l5.4-3.37c.43-.26.7-.72.71-1.22l.22-6.37a2.5 2.5 0 0 1 1.17-2.03l5.4-3.37c.43-.26.7-.72.71-1.22l.22-6.37a2.5 2.5 0 0 1 1.17-2.03l5.4-3.37c.43-.27.7-.72.71-1.22l.22-6.37a2.5 2.5 0 0 1 1.17-2.03l3.18-1.98V46.73Zm0 14.56-2.65 1.64a1.5 1.5 0 0 0-.7 1.23l-.22 6.36a2.5 2.5 0 0 1-1.17 2.04l-5.4 3.37a1.5 1.5 0 0 0-.71 1.22l-.22 6.36a2.5 2.5 0 0 1-1.17 2.04l-5.4 3.37a1.5 1.5 0 0 0-.71 1.22l-.22 6.36a2.5 2.5 0 0 1-1.17 2.04l-5.4 3.37a1.5 1.5 0 0 0-.71 1.22l-.22 6.36a2.5 2.5 0 0 1-1.17 2.04l-5.4 3.37a1.5 1.5 0 0 0-.71 1.22l-.22 6.36a2.5 2.5 0 0 1-1.17 2.04l-5.4 3.37a1.5 1.5 0 0 0-.71 1.22l-.22 6.36a2.5 2.5 0 0 1-1.17 2.04l-5.4 3.37a1.5 1.5 0 0 0-.71 1.22l-.22 6.36a2.5 2.5 0 0 1-1.17 2.04l-1.6 1h6.97v-.07l.21-6.36a2.5 2.5 0 0 1 1.18-2.04l5.4-3.37c.43-.26.7-.72.71-1.22l.21-6.36a2.5 2.5 0 0 1 1.18-2.04l5.4-3.37c.43-.26.7-.72.71-1.22l.21-6.37a2.5 2.5 0 0 1 1.18-2.03l5.4-3.37c.43-.26.7-.72.71-1.22l.21-6.36a2.5 2.5 0 0 1 1.18-2.04l5.4-3.37c.43-.26.7-.72.71-1.22l.21-6.37a2.5 2.5 0 0 1 1.18-2.03l5.4-3.37c.43-.26.7-.72.71-1.22l.21-6.37a2.5 2.5 0 0 1 1.18-2.03l5.4-3.37.08-.05V61.29Zm0 14.55-4.95 3.09a1.5 1.5 0 0 0-.7 1.22l-.22 6.36a2.5 2.5 0 0 1-1.18 2.04l-5.4 3.37a1.5 1.5 0 0 0-.7 1.22l-.22 6.36a2.5 2.5 0 0 1-1.18 2.04l-5.4 3.37a1.5 1.5 0 0 0-.7 1.22l-.22 6.36a2.5 2.5 0 0 1-1.18 2.04l-5.4 3.37a1.5 1.5 0 0 0-.7 1.22l-.22 6.36a2.5 2.5 0 0 1-1.18 2.04l-5.4 3.37a1.5 1.5 0 0 0-.7 1.22l-.22 6.36a2.5 2.5 0 0 1-1.18 2.04l-5.4 3.37a1.5 1.5 0 0 0-.7 1.22l-.22 6.36v.04h4.3l.11-3.43a2.5 2.5 0 0 1 1.18-2.04l5.4-3.37c.42-.26.69-.72.7-1.22l.22-6.36a2.5 2.5 0 0 1 1.18-2.04l5.4-3.37c.42-.26.69-.72.7-1.22l.22-6.36a2.5 2.5 0 0 1 1.18-2.04l5.4-3.37c.42-.26.69-.72.7-1.22l.22-6.36a2.5 2.5 0 0 1 1.18-2.04l5.4-3.37c.42-.26.69-.72.7-1.22l.22-6.37a2.5 2.5 0 0 1 1.18-2.03l5.4-3.37c.42-.26.69-.72.7-1.22l.22-6.37a2.5 2.5 0 0 1 1.18-2.03l.28-.18v-5.06Zm0 6.28a1.5 1.5 0 0 0-.46 1.03l-.21 6.36a2.5 2.5 0 0 1-1.18 2.04l-5.4 3.37a1.5 1.5 0 0 0-.71 1.22l-.21 6.36a2.5 2.5 0 0 1-1.18 2.04l-5.4 3.37a1.5 1.5 0 0 0-.71 1.22l-.21 6.36a2.5 2.5 0 0 1-1.18 2.04l-5.4 3.37a1.5 1.5 0 0 0-.71 1.22l-.21 6.36a2.5 2.5 0 0 1-1.18 2.04l-5.4 3.37a1.5 1.5 0 0 0-.71 1.22l-.21 6.36a2.5 2.5 0 0 1-1.18 2.04l-5.4 3.37a1.5 1.5 0 0 0-.71 1.22l-.11 3.4h4.3v-.43a2.5 2.5 0 0 1 1.18-2.04l5.4-3.37c.43-.26.7-.72.71-1.22l.22-6.36a2.5 2.5 0 0 1 1.17-2.04l5.4-3.37c.43-.26.7-.72.71-1.22l.22-6.36a2.5 2.5 0 0 1 1.17-2.04l5.4-3.37c.43-.26.7-.72.71-1.22l.22-6.36a2.5 2.5 0 0 1 1.17-2.04l5.4-3.37c.43-.26.7-.72.71-1.22l.22-6.37a2.5 2.5 0 0 1 1.17-2.03l2.59-1.62V82.12Zm0 14.51-2.06 1.29a1.5 1.5 0 0 0-.7 1.22l-.22 6.36a2.5 2.5 0 0 1-1.17 2.04l-5.4 3.37a1.5 1.5 0 0 0-.71 1.22l-.22 6.36a2.5 2.5 0 0 1-1.17 2.04l-5.4 3.37a1.5 1.5 0 0 0-.71 1.22l-.22 6.36a2.5 2.5 0 0 1-1.17 2.04l-5.4 3.37a1.5 1.5 0 0 0-.71 1.22l-.22 6.36a2.5 2.5 0 0 1-1.17 2.04l-5.4 3.37a1.5 1.5 0 0 0-.71 1.22l-.02.4h6.24l4.55-2.84c.43-.26.7-.72.7-1.22l.22-6.36a2.5 2.5 0 0 1 1.18-2.04l5.4-3.37c.43-.26.7-.72.7-1.22l.22-6.36a2.5 2.5 0 0 1 1.18-2.04l5.4-3.37c.43-.26.7-.72.7-1.22l.22-6.36a2.5 2.5 0 0 1 1.18-2.04l4.89-3.05V96.63Zm0 14.56-4.36 2.72a1.5 1.5 0 0 0-.7 1.22l-.22 6.36a2.5 2.5 0 0 1-1.18 2.04l-5.4 3.37a1.5 1.5 0 0 0-.7 1.22l-.22 6.36a2.5 2.5 0 0 1-1.18 2.04l-5.4 3.37a1.5 1.5 0 0 0-.7 1.22l-.22 6.36a2.5 2.5 0 0 1-1.18 2.04l-3.2 1.99h8.08c.3-.27.48-.65.5-1.06l.2-6.36a2.5 2.5 0 0 1 1.19-2.04l5.4-3.37c.42-.26.69-.72.7-1.22l.22-6.36a2.5 2.5 0 0 1 1.18-2.04l5.4-3.37c.42-.26.69-.72.7-1.22l.22-6.36c.02-.71.34-1.37.87-1.82v-5.1Zm0 10.75-.09 2.55a2.5 2.5 0 0 1-1.17 2.04l-5.4 3.37a1.5 1.5 0 0 0-.71 1.22l-.22 6.36a2.5 2.5 0 0 1-1.17 2.04l-5.4 3.37a1.5 1.5 0 0 0-.71 1.22l-.22 6.36c0 .37-.1.71-.25 1.03h4.52l.14-4.42a2.5 2.5 0 0 1 1.18-2.04l5.4-3.37c.43-.26.7-.72.71-1.22l.21-6.36a2.5 2.5 0 0 1 1.18-2.04l2-1.25v-8.86Zm0 10.04-1.47.92a1.5 1.5 0 0 0-.7 1.22l-.22 6.36a2.5 2.5 0 0 1-1.18 2.04l-5.4 3.37a1.5 1.5 0 0 0-.7 1.22l-.15 4.39h4.3l.04-1.42a2.5 2.5 0 0 1 1.18-2.04l4.3-2.68v-13.38Zm0 14.56-3.77 2.35a1.5 1.5 0 0 0-.7 1.22l-.06 1.39h.03a4.5 4.5 0 0 0 4.5-4.5v-.47Zm-79.93 4.96 1.37-.86c.43-.26.7-.72.71-1.22l.21-6.36a2.5 2.5 0 0 1 1.18-2.04l5.4-3.37c.43-.26.7-.72.71-1.22l.21-6.36a2.5 2.5 0 0 1 1.18-2.04l5.4-3.37c.43-.26.7-.72.71-1.22l.21-6.36c.01-.23.05-.45.12-.66l-6.1 10.54a10 10 0 0 1-5.86 4.6l-.07 1.9a2.5 2.5 0 0 1-1.17 2.04l-5.4 3.37a1.5 1.5 0 0 0-.71 1.22l-.22 6.36a2.5 2.5 0 0 1-1.17 2.04l-4.83 3.01h8.12Zm-9.8 0c.16-.19.36-.35.57-.5l5.4-3.36c.43-.26.7-.72.71-1.22l.22-6.36a2.5 2.5 0 0 1 1.17-2.04l5.4-3.37c.43-.26.7-.72.71-1.22l.06-1.63c-.58.1-1.18.16-1.78.16h-3.04c-.17.21-.37.4-.61.54l-5.4 3.37a1.5 1.5 0 0 0-.7 1.22l-.22 6.36a2.5 2.5 0 0 1-1.18 2.04l-5.4 3.37a1.5 1.5 0 0 0-.7 1.22l-.06 1.42h4.85Zm-5.85 0 .05-1.45a2.5 2.5 0 0 1 1.18-2.04l5.4-3.37c.43-.26.69-.72.7-1.22l.22-6.36a2.5 2.5 0 0 1 1.18-2.04l4.9-3.06H115l-11.5 19.54h5.42Zm-90.59 0 33.3-56.56-2.33-4.04-3.85 2.4a1.5 1.5 0 0 0-.7 1.22l-.22 6.37a2.5 2.5 0 0 1-1.18 2.03l-5.4 3.37a1.5 1.5 0 0 0-.7 1.22l-.22 6.37a2.5 2.5 0 0 1-1.18 2.03l-5.4 3.37a1.5 1.5 0 0 0-.7 1.22l-.22 6.37a2.5 2.5 0 0 1-1.18 2.03l-5.4 3.37a1.5 1.5 0 0 0-.7 1.22l-.22 6.37a2.5 2.5 0 0 1-1.18 2.03l-5.4 3.37a1.5 1.5 0 0 0-.7 1.22l-.18 5.02H18.33Zm-4.76 0 .17-5.05a2.5 2.5 0 0 1 1.18-2.04l5.4-3.36c.43-.27.7-.73.7-1.23l.22-6.36a2.5 2.5 0 0 1 1.18-2.04l5.4-3.36c.43-.27.7-.73.7-1.23l.22-6.36a2.5 2.5 0 0 1 1.18-2.04l5.4-3.37c.43-.26.7-.72.7-1.22l.22-6.36a2.5 2.5 0 0 1 1.18-2.04l5.4-3.36c.43-.27.7-.73.7-1.23l.22-6.36a2.5 2.5 0 0 1 1.18-2.04l3.87-2.41-2.3-3.98c-.2.35-.48.65-.83.87l-5.4 3.37a1.5 1.5 0 0 0-.71 1.22l-.22 6.37a2.5 2.5 0 0 1-1.17 2.03l-5.4 3.37a1.5 1.5 0 0 0-.71 1.22l-.22 6.37a2.5 2.5 0 0 1-1.17 2.03l-5.4 3.37a1.5 1.5 0 0 0-.71 1.22l-.22 6.37a2.5 2.5 0 0 1-1.17 2.03l-5.4 3.37a1.5 1.5 0 0 0-.71 1.22l-.22 6.37a2.5 2.5 0 0 1-1.17 2.03l-5.4 3.37a1.5 1.5 0 0 0-.71 1.22l-.22 6.37a2.5 2.5 0 0 1-.7 1.65h4.94Zm-6.69 0 .75-.46c.42-.27.69-.73.7-1.23l.22-6.36a2.5 2.5 0 0 1 1.17-2.04l5.4-3.36c.43-.27.7-.73.71-1.23l.22-6.36a2.5 2.5 0 0 1 1.17-2.04l5.4-3.36c.43-.27.7-.73.71-1.23l.22-6.36a2.5 2.5 0 0 1 1.17-2.04l5.4-3.37c.43-.26.7-.72.71-1.22l.22-6.36a2.5 2.5 0 0 1 1.17-2.04l5.4-3.37c.43-.26.7-.72.71-1.22l.22-6.36a2.5 2.5 0 0 1 1.17-2.04l5.4-3.37c.42-.25.68-.7.71-1.18a10 10 0 0 1 .06-9.9l2.59-4.48c-.15.16-.33.3-.52.42l-5.4 3.37a1.5 1.5 0 0 0-.71 1.22l-.21 6.37a2.5 2.5 0 0 1-1.18 2.03l-5.4 3.37a1.5 1.5 0 0 0-.71 1.22l-.21 6.37a2.5 2.5 0 0 1-1.18 2.03l-5.4 3.37a1.5 1.5 0 0 0-.71 1.22l-.21 6.37a2.5 2.5 0 0 1-1.18 2.03l-5.4 3.37a1.5 1.5 0 0 0-.71 1.22l-.21 6.37a2.5 2.5 0 0 1-1.18 2.03l-5.4 3.37a1.5 1.5 0 0 0-.71 1.22l-.21 6.37a2.5 2.5 0 0 1-1.18 2.03l-5.4 3.37a1.5 1.5 0 0 0-.71 1.22l-.21 6.37a2.5 2.5 0 0 1-1.18 2.03l-.78.5A4.5 4.5 0 0 0 6 151.5h.88Zm-5.14-3.03.7-.43c.42-.27.68-.73.7-1.23l.21-6.36a2.5 2.5 0 0 1 1.18-2.04l5.4-3.36c.43-.27.69-.73.7-1.23l.22-6.36a2.5 2.5 0 0 1 1.18-2.04l5.4-3.36c.43-.27.69-.73.7-1.23l.22-6.36a2.5 2.5 0 0 1 1.18-2.04l5.4-3.37c.43-.26.69-.72.7-1.22l.22-6.36a2.5 2.5 0 0 1 1.18-2.04l5.4-3.37c.43-.26.69-.72.7-1.22l.22-6.36a2.5 2.5 0 0 1 1.18-2.04l5.4-3.37c.43-.26.69-.72.7-1.22l.22-6.36a2.5 2.5 0 0 1 1.18-2.04l5.4-3.37c.43-.26.69-.72.7-1.22l.22-6.36a2.5 2.5 0 0 1 1.18-2.04l5.4-3.37c.43-.26.69-.72.7-1.22l.22-6.36a2.5 2.5 0 0 1 1.18-2.04l5.4-3.37c.43-.26.69-.72.7-1.22l.22-6.36a2.5 2.5 0 0 1 1.18-2.04l5.4-3.37c.43-.26.69-.72.7-1.22l.22-6.36a2.5 2.5 0 0 1 1.18-2.04l5.4-3.37c.43-.26.69-.72.7-1.22l.22-6.36a2.5 2.5 0 0 1 1.18-2.04l.01-.01h-5.42l-.18 5.44a2.5 2.5 0 0 1-1.18 2.04l-5.4 3.37a1.5 1.5 0 0 0-.7 1.22l-.22 6.36a2.5 2.5 0 0 1-1.18 2.04l-5.4 3.37a1.5 1.5 0 0 0-.7 1.22l-.22 6.36a2.5 2.5 0 0 1-1.18 2.04l-5.4 3.37a1.5 1.5 0 0 0-.7 1.22l-.22 6.36a2.5 2.5 0 0 1-1.18 2.04l-5.4 3.37a1.5 1.5 0 0 0-.7 1.22l-.22 6.37a2.5 2.5 0 0 1-1.18 2.03l-5.4 3.37a1.5 1.5 0 0 0-.7 1.22l-.22 6.37a2.5 2.5 0 0 1-1.18 2.03l-5.4 3.37a1.5 1.5 0 0 0-.7 1.22l-.22 6.37a2.5 2.5 0 0 1-1.18 2.03l-5.4 3.37a1.5 1.5 0 0 0-.7 1.22l-.22 6.37a2.5 2.5 0 0 1-1.18 2.03l-5.4 3.37a1.5 1.5 0 0 0-.7 1.22l-.22 6.37a2.5 2.5 0 0 1-1.18 2.03l-5.4 3.37a1.5 1.5 0 0 0-.7 1.22l-.22 6.37a2.5 2.5 0 0 1-1.18 2.03l-3.76 2.35V147c0 .51.09 1 .24 1.47Zm-.24-14.4 3.23-2.02c.43-.27.7-.73.71-1.23l.21-6.36a2.5 2.5 0 0 1 1.18-2.04l5.4-3.36c.43-.27.7-.73.71-1.23l.21-6.36a2.5 2.5 0 0 1 1.18-2.04l5.4-3.37c.43-.26.7-.72.71-1.22l.21-6.36a2.5 2.5 0 0 1 1.18-2.04l5.4-3.37c.43-.26.7-.72.71-1.22l.21-6.36a2.5 2.5 0 0 1 1.18-2.04l5.4-3.37c.43-.26.7-.72.71-1.22l.21-6.36a2.5 2.5 0 0 1 1.18-2.04l5.4-3.37c.43-.26.7-.72.71-1.22l.21-6.36a2.5 2.5 0 0 1 1.18-2.04l5.4-3.37c.43-.26.7-.72.71-1.22l.21-6.36a2.5 2.5 0 0 1 1.18-2.04l5.4-3.37c.43-.26.7-.72.71-1.22l.21-6.36a2.5 2.5 0 0 1 1.18-2.04l5.4-3.37c.43-.26.7-.72.71-1.22l.21-6.36a2.5 2.5 0 0 1 1.18-2.04l5.4-3.37c.43-.26.7-.72.71-1.22l.18-5.41h-4.3l-.08 2.44a2.5 2.5 0 0 1-1.17 2.04l-5.4 3.37a1.5 1.5 0 0 0-.71 1.22l-.22 6.36a2.5 2.5 0 0 1-1.17 2.04l-5.4 3.37a1.5 1.5 0 0 0-.71 1.22l-.22 6.36a2.5 2.5 0 0 1-1.17 2.04l-5.4 3.37a1.5 1.5 0 0 0-.71 1.22l-.22 6.36a2.5 2.5 0 0 1-1.17 2.04l-5.4 3.37a1.5 1.5 0 0 0-.71 1.22l-.22 6.37a2.5 2.5 0 0 1-1.17 2.03l-5.4 3.37a1.5 1.5 0 0 0-.71 1.22l-.22 6.37a2.5 2.5 0 0 1-1.17 2.03l-5.4 3.37a1.5 1.5 0 0 0-.71 1.22l-.22 6.37a2.5 2.5 0 0 1-1.17 2.03l-5.4 3.37a1.5 1.5 0 0 0-.71 1.22l-.22 6.37a2.5 2.5 0 0 1-1.17 2.03l-5.4 3.37a1.5 1.5 0 0 0-.71 1.22l-.22 6.37a2.5 2.5 0 0 1-1.17 2.03l-5.4 3.37a1.5 1.5 0 0 0-.67.92v12.87Zm0-14.56.14-.09 5.4-3.36c.42-.27.69-.73.7-1.23l.22-6.36a2.5 2.5 0 0 1 1.18-2.04l5.4-3.37c.42-.26.69-.72.7-1.22l.22-6.36a2.5 2.5 0 0 1 1.18-2.04l5.4-3.37c.42-.26.69-.72.7-1.22l.22-6.36a2.5 2.5 0 0 1 1.18-2.04l5.4-3.37c.42-.26.69-.72.7-1.22l.22-6.36a2.5 2.5 0 0 1 1.18-2.04l5.4-3.37c.42-.26.69-.72.7-1.22l.22-6.36a2.5 2.5 0 0 1 1.18-2.04l5.4-3.37c.42-.26.69-.72.7-1.22l.22-6.36a2.5 2.5 0 0 1 1.18-2.04l5.4-3.37c.42-.26.69-.72.7-1.22l.22-6.36a2.5 2.5 0 0 1 1.18-2.04l5.4-3.37c.42-.26.69-.72.7-1.22l.22-6.36a2.5 2.5 0 0 1 1.18-2.04l5.4-3.37c.42-.26.69-.72.7-1.22l.09-2.41h-4.36a2.5 2.5 0 0 1-1.1 1.48l-5.4 3.37a1.5 1.5 0 0 0-.7 1.22l-.22 6.36a2.5 2.5 0 0 1-1.18 2.04l-5.4 3.37a1.5 1.5 0 0 0-.7 1.22l-.22 6.36a2.5 2.5 0 0 1-1.18 2.04l-5.4 3.37a1.5 1.5 0 0 0-.7 1.22l-.22 6.36a2.5 2.5 0 0 1-1.18 2.04l-5.4 3.37a1.5 1.5 0 0 0-.7 1.22l-.22 6.37a2.5 2.5 0 0 1-1.18 2.03l-5.4 3.37a1.5 1.5 0 0 0-.7 1.22l-.22 6.37a2.5 2.5 0 0 1-1.18 2.03l-5.4 3.37a1.5 1.5 0 0 0-.7 1.22l-.22 6.37a2.5 2.5 0 0 1-1.18 2.03l-5.4 3.37a1.5 1.5 0 0 0-.7 1.22l-.22 6.37a2.5 2.5 0 0 1-1.18 2.03l-5.4 3.37a1.5 1.5 0 0 0-.7 1.22l-.22 6.37a2.5 2.5 0 0 1-1.18 2.03l-.87.55v5.06Zm0-6.24.34-.21c.43-.27.7-.73.7-1.23l.22-6.36a2.5 2.5 0 0 1 1.18-2.04l5.4-3.37c.43-.26.7-.72.7-1.22l.22-6.36a2.5 2.5 0 0 1 1.18-2.04l5.4-3.37c.43-.26.7-.72.7-1.22l.22-6.36a2.5 2.5 0 0 1 1.18-2.04l5.4-3.37c.43-.26.7-.72.7-1.22l.22-6.36a2.5 2.5 0 0 1 1.18-2.04l5.4-3.37c.43-.26.7-.72.7-1.22l.22-6.36a2.5 2.5 0 0 1 1.18-2.04l5.4-3.37c.43-.26.7-.72.7-1.22l.22-6.36a2.5 2.5 0 0 1 1.18-2.04l5.4-3.37c.43-.26.7-.72.7-1.22l.22-6.36a2.5 2.5 0 0 1 1.18-2.04l5.4-3.37c.43-.26.7-.72.7-1.22l.22-6.36a2.5 2.5 0 0 1 1.18-2.04l5.4-3.37c.25-.15.44-.37.57-.63h-7.67l-2.97 1.85a1.5 1.5 0 0 0-.7 1.22l-.22 6.36a2.5 2.5 0 0 1-1.17 2.04l-5.4 3.37a1.5 1.5 0 0 0-.71 1.22l-.22 6.36a2.5 2.5 0 0 1-1.17 2.04l-5.4 3.37a1.5 1.5 0 0 0-.71 1.22l-.22 6.36a2.5 2.5 0 0 1-1.17 2.04l-5.4 3.37a1.5 1.5 0 0 0-.71 1.22l-.22 6.37a2.5 2.5 0 0 1-1.17 2.03l-5.4 3.37a1.5 1.5 0 0 0-.71 1.22l-.22 6.37a2.5 2.5 0 0 1-1.17 2.03l-5.4 3.37a1.5 1.5 0 0 0-.71 1.22l-.22 6.37a2.5 2.5 0 0 1-1.17 2.03l-5.4 3.37a1.5 1.5 0 0 0-.71 1.22l-.22 6.37a2.5 2.5 0 0 1-1.17 2.03L1.5 99.9v13.38Zm0-14.56 2.65-1.64c.42-.27.69-.73.7-1.23l.22-6.36a2.5 2.5 0 0 1 1.17-2.04l5.4-3.37c.43-.26.7-.72.71-1.22l.22-6.36a2.5 2.5 0 0 1 1.17-2.04l5.4-3.37c.43-.26.7-.72.71-1.22l.22-6.36a2.5 2.5 0 0 1 1.17-2.04l5.4-3.37c.43-.26.7-.72.71-1.22l.22-6.36a2.5 2.5 0 0 1 1.17-2.04l5.4-3.37c.43-.26.7-.72.71-1.22l.22-6.36a2.5 2.5 0 0 1 1.17-2.04l5.4-3.37c.43-.26.7-.72.71-1.22l.22-6.36a2.5 2.5 0 0 1 1.17-2.04l5.4-3.37c.43-.26.7-.72.71-1.22l.22-6.36a2.5 2.5 0 0 1 1.17-2.04l1.6-1h-6.97v.07l-.21 6.36a2.5 2.5 0 0 1-1.18 2.04l-5.4 3.37a1.5 1.5 0 0 0-.71 1.22l-.21 6.36a2.5 2.5 0 0 1-1.18 2.04l-5.4 3.37a1.5 1.5 0 0 0-.71 1.22l-.21 6.36a2.5 2.5 0 0 1-1.18 2.04l-5.4 3.37a1.5 1.5 0 0 0-.71 1.22l-.21 6.37a2.5 2.5 0 0 1-1.18 2.03l-5.4 3.37a1.5 1.5 0 0 0-.71 1.22l-.21 6.37a2.5 2.5 0 0 1-1.18 2.03l-5.4 3.37a1.5 1.5 0 0 0-.71 1.22l-.21 6.37a2.5 2.5 0 0 1-1.18 2.03l-5.4 3.37a1.5 1.5 0 0 0-.08.05v13.37Zm0-14.55 4.95-3.09c.42-.26.69-.72.7-1.22l.22-6.36a2.5 2.5 0 0 1 1.18-2.04l5.4-3.37c.42-.26.69-.72.7-1.22l.22-6.36a2.5 2.5 0 0 1 1.18-2.04l5.4-3.37c.42-.26.69-.72.7-1.22l.22-6.36a2.5 2.5 0 0 1 1.18-2.04l5.4-3.37c.42-.26.69-.72.7-1.22l.22-6.36a2.5 2.5 0 0 1 1.18-2.04l5.4-3.37c.42-.26.69-.72.7-1.22l.22-6.36a2.5 2.5 0 0 1 1.18-2.04l5.4-3.37c.42-.26.69-.72.7-1.22l.22-6.36V8.5h-4.3l-.11 3.43a2.5 2.5 0 0 1-1.18 2.04l-5.4 3.37a1.5 1.5 0 0 0-.7 1.22l-.22 6.36a2.5 2.5 0 0 1-1.18 2.04l-5.4 3.37a1.5 1.5 0 0 0-.7 1.22l-.22 6.36a2.5 2.5 0 0 1-1.18 2.04l-5.4 3.37a1.5 1.5 0 0 0-.7 1.22l-.22 6.37a2.5 2.5 0 0 1-1.18 2.03l-5.4 3.37a1.5 1.5 0 0 0-.7 1.22l-.22 6.37a2.5 2.5 0 0 1-1.18 2.03l-5.4 3.37a1.5 1.5 0 0 0-.7 1.22l-.22 6.37a2.5 2.5 0 0 1-1.18 2.03l-.28.18v5.06Zm0-6.28c.28-.26.45-.63.46-1.03l.21-6.36a2.5 2.5 0 0 1 1.18-2.04l5.4-3.37c.43-.26.7-.72.71-1.22l.21-6.36a2.5 2.5 0 0 1 1.18-2.04l5.4-3.37c.43-.26.7-.72.71-1.22l.21-6.36a2.5 2.5 0 0 1 1.18-2.04l5.4-3.37c.43-.26.7-.72.71-1.22l.21-6.36a2.5 2.5 0 0 1 1.18-2.04l5.4-3.37c.43-.26.7-.72.71-1.22l.21-6.36a2.5 2.5 0 0 1 1.18-2.04l5.4-3.37c.43-.26.7-.72.71-1.22l.11-3.4h-4.3v.43a2.5 2.5 0 0 1-1.18 2.04l-5.4 3.37a1.5 1.5 0 0 0-.71 1.22l-.22 6.36a2.5 2.5 0 0 1-1.17 2.04l-5.4 3.37a1.5 1.5 0 0 0-.71 1.22l-.22 6.36a2.5 2.5 0 0 1-1.17 2.04l-5.4 3.37a1.5 1.5 0 0 0-.71 1.22l-.22 6.37a2.5 2.5 0 0 1-1.17 2.03l-5.4 3.37a1.5 1.5 0 0 0-.71 1.22l-.22 6.37a2.5 2.5 0 0 1-1.17 2.03L1.5 64.55v13.33Zm0-14.51 2.06-1.29c.42-.26.69-.72.7-1.22l.22-6.36a2.5 2.5 0 0 1 1.17-2.04l5.4-3.37c.43-.26.7-.72.71-1.22l.22-6.36a2.5 2.5 0 0 1 1.17-2.04l5.4-3.37c.43-.26.7-.72.71-1.22l.22-6.36a2.5 2.5 0 0 1 1.17-2.04l5.4-3.37c.43-.26.7-.72.71-1.22l.22-6.36a2.5 2.5 0 0 1 1.17-2.04l5.4-3.37c.43-.26.7-.72.71-1.22l.02-.4h-6.24l-4.55 2.84a1.5 1.5 0 0 0-.7 1.22l-.22 6.36a2.5 2.5 0 0 1-1.18 2.04L16 24.33a1.5 1.5 0 0 0-.7 1.22l-.22 6.36a2.5 2.5 0 0 1-1.18 2.04l-5.4 3.37a1.5 1.5 0 0 0-.7 1.22l-.22 6.37a2.5 2.5 0 0 1-1.18 2.03L1.5 50v13.38Zm0-14.56 4.36-2.72c.43-.26.7-.72.7-1.22l.22-6.36a2.5 2.5 0 0 1 1.18-2.04l5.4-3.37c.43-.26.7-.72.7-1.22l.22-6.36a2.5 2.5 0 0 1 1.18-2.04l5.4-3.37c.43-.26.7-.72.7-1.22l.22-6.36a2.5 2.5 0 0 1 1.18-2.04l3.2-1.99h-8.08c-.3.27-.48.65-.5 1.06l-.2 6.36a2.5 2.5 0 0 1-1.19 2.04l-5.4 3.37a1.5 1.5 0 0 0-.7 1.22l-.22 6.36a2.5 2.5 0 0 1-1.18 2.04l-5.4 3.37a1.5 1.5 0 0 0-.7 1.22l-.22 6.37a2.5 2.5 0 0 1-.87 1.8v5.1Zm0-10.76.09-2.54a2.5 2.5 0 0 1 1.17-2.04l5.4-3.37c.43-.26.7-.72.71-1.22l.22-6.36a2.5 2.5 0 0 1 1.17-2.04l5.4-3.37c.43-.26.7-.72.71-1.22l.22-6.36c0-.36.1-.71.25-1.03h-4.52l-.15 4.42A2.5 2.5 0 0 1 11 14.96l-5.4 3.37a1.5 1.5 0 0 0-.71 1.22l-.22 6.36a2.5 2.5 0 0 1-1.17 2.04l-2 1.25v8.85Zm0-10.03 1.47-.92c.42-.26.69-.72.7-1.22l.22-6.36a2.5 2.5 0 0 1 1.18-2.04l5.4-3.37c.42-.26.69-.72.7-1.22l.15-4.39h-4.3l-.04 1.42a2.5 2.5 0 0 1-1.18 2.04l-4.3 2.68v13.38Zm0-14.56 3.77-2.35c.43-.26.7-.72.7-1.22l.06-1.39H6A4.5 4.5 0 0 0 1.5 13v.46ZM81.43 8.5l-1.37.86a1.5 1.5 0 0 0-.71 1.22l-.21 6.36a2.5 2.5 0 0 1-1.18 2.04l-5.4 3.37a1.5 1.5 0 0 0-.71 1.22l-.21 6.36a2.5 2.5 0 0 1-1.18 2.04l-5.4 3.37a1.5 1.5 0 0 0-.71 1.22l-.21 6.36c-.01.23-.05.45-.12.67l6.1-10.55a10 10 0 0 1 5.86-4.6l.07-1.9a2.5 2.5 0 0 1 1.17-2.04l5.4-3.37c.43-.26.7-.72.71-1.22l.22-6.36a2.5 2.5 0 0 1 1.17-2.04l4.83-3.01h-8.12Zm9.8 0a2.5 2.5 0 0 1-.57.5l-5.4 3.36a1.5 1.5 0 0 0-.71 1.22l-.22 6.36a2.5 2.5 0 0 1-1.17 2.04l-5.4 3.37a1.5 1.5 0 0 0-.71 1.22l-.06 1.63a10 10 0 0 1 1.78-.16h3.04c.17-.21.37-.4.61-.54l5.4-3.37c.43-.26.7-.72.7-1.22l.22-6.36a2.5 2.5 0 0 1 1.18-2.04l5.4-3.37c.43-.26.7-.72.7-1.22l.06-1.42h-4.85Zm5.85 0-.05 1.45A2.5 2.5 0 0 1 95.85 12l-5.4 3.37a1.5 1.5 0 0 0-.7 1.22l-.22 6.36a2.5 2.5 0 0 1-1.18 2.04l-4.9 3.06H91L102.5 8.5h-5.42ZM62.96 44.96c.2-.12.37-.26.52-.43l-6.96 12.05c.07-.22.1-.44.12-.67l.21-6.36c.02-.5.28-.96.7-1.22l5.41-3.37Zm-7.5 13c.2-.13.37-.27.52-.44l-6.96 12.05c.07-.22.1-.44.12-.66l.21-6.37c.02-.5.28-.96.7-1.22l5.41-3.37Zm87.58 57.08c-.2.12-.36.26-.52.42l6.96-12.03c-.07.2-.1.43-.12.65l-.21 6.37c-.02.5-.28.96-.7 1.22l-5.41 3.37Zm7.5-13c-.2.13-.36.27-.52.43l6.96-12.04c-.07.22-.1.44-.12.66l-.21 6.37c-.02.5-.28.96-.7 1.22l-5.41 3.37Zm-15.52 24.42 24.23-41.96a9 9 0 0 0 0-9l-24.23-41.96a9 9 0 0 0-7.8-4.5H78.78a9 9 0 0 0-7.8 4.5L46.76 75.5a9 9 0 0 0 0 9l24.23 41.96a9 9 0 0 0 7.8 4.5h48.45a9 9 0 0 0 7.8-4.5Z" fill="#BAD6EB"/><path d="M151.27 77a6 6 0 0 1 0 6l-21.54 37.3a6 6 0 0 1-5.2 3H81.47a6 6 0 0 1-5.2-3L54.74 83a6 6 0 0 1 0-6l21.54-37.3a6 6 0 0 1 5.2-3h43.07a6 6 0 0 1 5.2 3L151.26 77Z" fill="#fff"/><path d="M77.85 53.06s7.41 7.67.66 20.52c0 0-2.9-19.5-.66-20.52Zm0 0c2.23-1.02 17.24 11.77 17.24 11.77M128.1 53.06s-7.41 7.67-.66 20.52c0 0 2.9-19.5.66-20.52Zm0 0c-2.23-1.01-17.24 11.77-17.24 11.77" stroke="#8CAEC8" stroke-miterlimit="10" stroke-linecap="round" stroke-linejoin="round"/><path d="M103.44 76.5c1.95 0 3.53-2.02 3.53-4.52 0-2.5-1.58-4.52-3.53-4.52-1.95 0-3.54 2.03-3.54 4.52 0 2.5 1.59 4.53 3.54 4.53Z" fill="#00CA51"/><path d="M116.65 64.9c0 .02-26.74.01-26.74 0" stroke="#8CAEC8" stroke-miterlimit="10" stroke-linecap="round" stroke-linejoin="round"/><path d="M103.62 88.6c2.67 0 4.84-.8 4.84-1.79s-2.17-1.8-4.84-1.8c-2.68 0-4.85.81-4.85 1.8 0 1 2.17 1.8 4.85 1.8Z" fill="#8CAEC8"/><path d="M103.75 88.47s.49 9.03 6.86 5.5M103.56 88.47s-.49 9.03-6.86 5.5M110.2 90.94h11.53M110.2 88.84l11.53-2.1M97.31 90.94H85.8M97.31 88.84l-11.52-2.1" stroke="#8CAEC8" stroke-miterlimit="10" stroke-linecap="round" stroke-linejoin="round"/><path d="M127.44 73.59s9.69 29.78-19.24 29.78h-6.33M98.8 77.89a4.88 4.88 0 1 1-9.77 0M117.58 77.89a4.88 4.88 0 1 1-9.77 0M88.12 106.12v-4.78s-6.33-1.86-9.6-7.4c-3.4-5.73 0-20.37 0-20.37" stroke="#8CAEC8" stroke-miterlimit="10" stroke-linecap="round" stroke-linejoin="round"/></svg>